<svg width="23" height="22" viewBox="0 0 23 22" fill="none" xmlns="http://www.w3.org/2000/svg">
<path d="M11.1167 0C4.98649 0 0 4.8948 0 10.9229C0 15.9425 3.46903 20.1895 8.18986 21.4471C8.27226 21.469 8.35871 21.472 8.44249 21.4558C8.52627 21.4397 8.60512 21.4048 8.67295 21.3539C8.74077 21.3029 8.79574 21.2374 8.83358 21.1622C8.87142 21.0871 8.89112 21.0044 8.89116 20.9205V17.0174C8.90403 16.9505 8.90403 16.8818 8.89116 16.8149V16.38C8.89116 15.7944 9.12094 15.2766 9.50562 14.875C9.57161 14.8059 9.61812 14.7211 9.64059 14.6289C9.66306 14.5368 9.6607 14.4405 9.63376 14.3495C9.60681 14.2585 9.5562 14.176 9.48691 14.11C9.41761 14.0441 9.33202 13.9969 9.23856 13.9733C7.02484 13.4206 5.55833 11.9546 5.55833 10.3686C5.55833 9.53977 5.96029 8.73566 6.68737 8.07703C6.75749 8.01378 6.80989 7.93391 6.83955 7.84508C6.8692 7.75624 6.87512 7.66141 6.85672 7.56968C6.74411 7.0148 6.76187 6.42427 6.75251 5.84087C7.35118 6.10149 7.96241 6.33046 8.49383 6.74898C8.56357 6.80388 8.64577 6.84147 8.73346 6.85854C8.82115 6.87561 8.91175 6.87166 8.99755 6.84703C9.65322 6.65818 10.3666 6.5486 11.1167 6.5486C11.8656 6.5486 12.5784 6.65731 13.2336 6.84703C13.3196 6.87232 13.4105 6.8768 13.4986 6.86009C13.5867 6.84339 13.6693 6.80599 13.7395 6.75111C14.2705 6.33291 14.8818 6.10144 15.4808 5.84087C15.471 6.4246 15.4898 7.01543 15.3766 7.56968C15.3576 7.66155 15.3629 7.75669 15.3922 7.84593C15.4215 7.93516 15.4737 8.01549 15.5438 8.07916C16.2722 8.73811 16.6772 9.54102 16.6772 10.3707C16.6772 11.9553 15.2087 13.4195 12.9948 13.9733C12.9009 13.9967 12.8149 14.0438 12.7453 14.11C12.6756 14.1761 12.6248 14.2589 12.5978 14.3502C12.5708 14.4416 12.5686 14.5382 12.5914 14.6306C12.6142 14.7231 12.6612 14.8081 12.7277 14.8772C13.1117 15.2781 13.3422 15.7955 13.3422 16.38L13.3378 20.9205C13.3378 21.0046 13.3575 21.0875 13.3955 21.1629C13.4334 21.2382 13.4886 21.304 13.5567 21.3549C13.6248 21.4059 13.704 21.4407 13.788 21.4567C13.8721 21.4727 13.9588 21.4694 14.0413 21.4471C18.7632 20.1895 22.2333 15.9426 22.2333 10.9229C22.2333 4.8948 17.2468 0 11.1167 0ZM11.1167 1.09143C16.6456 1.09143 21.1217 5.48432 21.1217 10.9229C21.1217 15.1791 18.3096 18.7212 14.4495 20.0785L14.4538 16.38C14.4538 15.7486 14.1059 15.2498 13.7894 14.7493C16.0442 13.9935 17.7888 12.4172 17.7888 10.3707C17.7888 9.2925 17.2628 8.31372 16.4818 7.51852C16.6339 6.66251 16.7113 5.78763 16.6424 4.87308C16.6359 4.79024 16.6103 4.70994 16.5674 4.63832C16.5245 4.56669 16.4655 4.50563 16.3949 4.45978C16.3244 4.41393 16.2441 4.3845 16.1601 4.37375C16.0762 4.36299 15.9909 4.37118 15.9107 4.39771C14.9981 4.70263 14.122 5.16177 13.2966 5.76413C12.6086 5.58601 11.8863 5.45716 11.1167 5.45716C10.3454 5.45716 9.62274 5.58663 8.93459 5.76413C8.10954 5.16195 7.23637 4.7005 6.32478 4.39558C6.24445 4.36866 6.15891 4.36016 6.07472 4.37072C5.99053 4.38129 5.90992 4.41064 5.83908 4.45653C5.76823 4.50242 5.70903 4.56363 5.66601 4.63547C5.62299 4.7073 5.5973 4.78785 5.5909 4.87094C5.51989 5.78672 5.60059 6.65965 5.75157 7.51426C4.97015 8.31015 4.44667 9.29054 4.44667 10.3686C4.44667 12.4151 6.18789 13.994 8.44172 14.7493C8.12766 15.2477 7.78498 15.746 7.78167 16.3715H6.11417C5.80752 16.3715 5.56417 16.2111 5.26522 15.8492C4.96626 15.4873 4.67625 14.959 4.36633 14.453C4.31462 14.3665 4.23965 14.2957 4.14964 14.2483C4.05963 14.2009 3.95807 14.1788 3.85609 14.1844C3.76005 14.1899 3.66711 14.2197 3.58635 14.2711C3.50559 14.3224 3.43979 14.3934 3.39537 14.4772C3.35095 14.561 3.32944 14.6547 3.33294 14.7491C3.33644 14.8435 3.36483 14.9353 3.41534 15.0157C3.70238 15.4844 3.99967 16.0497 4.40107 16.5356C4.80247 17.0215 5.37252 17.4629 6.11417 17.4629H7.7795V20.0785C3.92184 18.7206 1.11167 15.1783 1.11167 10.9229C1.11167 5.48432 5.58769 1.09143 11.1167 1.09143Z" fill="#545454"/>
</svg>
