<svg width="23" height="23" viewBox="0 0 23 23" fill="none" xmlns="http://www.w3.org/2000/svg">
<path d="M4.14003 1.84009C2.87525 1.84009 1.84003 2.87531 1.84003 4.14009V18.8601C1.84003 20.1249 2.87525 21.1601 4.14003 21.1601H18.86C20.1248 21.1601 21.16 20.1249 21.16 18.8601V4.14009C21.16 2.87531 20.1248 1.84009 18.86 1.84009H4.14003ZM4.14003 2.76009H18.86C19.6275 2.76009 20.24 3.37259 20.24 4.14009V18.8601C20.24 19.6276 19.6275 20.2401 18.86 20.2401H4.14003C3.37252 20.2401 2.76003 19.6276 2.76003 18.8601V4.14009C2.76003 3.37259 3.37252 2.76009 4.14003 2.76009ZM6.44003 5.06548C5.93622 5.06548 5.48287 5.21606 5.14718 5.49853C4.81148 5.78099 4.60542 6.20296 4.60542 6.65481C4.60542 7.51372 5.35042 8.18331 6.29807 8.24954L6.29987 8.25044C6.34503 8.26583 6.39232 8.27402 6.44003 8.2747C7.48561 8.2747 8.27464 7.54229 8.27464 6.65481C8.27455 6.64672 8.27425 6.63863 8.27374 6.63056C8.22693 5.75645 7.44763 5.06548 6.44003 5.06548ZM6.44003 5.9747C7.08045 5.9747 7.33333 6.26071 7.36093 6.66649C7.35534 7.06037 7.11167 7.36548 6.44003 7.36548C5.80274 7.36548 5.51464 7.03911 5.51464 6.65481C5.51464 6.46267 5.58475 6.31786 5.73206 6.19392C5.87936 6.06997 6.11583 5.9747 6.44003 5.9747ZM5.06003 8.74009C4.93803 8.7401 4.82104 8.78857 4.73477 8.87483C4.64851 8.9611 4.60004 9.07809 4.60003 9.20009V17.9401C4.60004 18.0621 4.64851 18.1791 4.73477 18.2653C4.82104 18.3516 4.93803 18.4001 5.06003 18.4001H7.82003C7.94202 18.4001 8.05902 18.3516 8.14528 18.2653C8.23155 18.1791 8.28001 18.0621 8.28003 17.9401V15.2421V9.20009C8.28001 9.07809 8.23155 8.9611 8.14528 8.87483C8.05902 8.78857 7.94202 8.7401 7.82003 8.74009H5.06003ZM9.20003 8.74009C9.07803 8.7401 8.96104 8.78857 8.87477 8.87483C8.78851 8.9611 8.74004 9.07809 8.74003 9.20009V17.9401C8.74004 18.0621 8.78851 18.1791 8.87477 18.2653C8.96104 18.3516 9.07803 18.4001 9.20003 18.4001H11.96C12.082 18.4001 12.199 18.3516 12.2853 18.2653C12.3715 18.1791 12.42 18.0621 12.42 17.9401V13.3401C12.42 12.9584 12.5242 12.5788 12.7075 12.3302C12.8909 12.0817 13.1222 11.9325 13.5619 11.9403C14.0154 11.9481 14.2554 12.1035 14.437 12.3473C14.6186 12.5912 14.72 12.9568 14.72 13.3401V17.9401C14.72 18.0621 14.7685 18.1791 14.8548 18.2653C14.941 18.3516 15.058 18.4001 15.18 18.4001H17.94C18.062 18.4001 18.179 18.3516 18.2653 18.2653C18.3515 18.1791 18.4 18.0621 18.4 17.9401V13.0005C18.4 11.6382 17.9965 10.5591 17.3048 9.82899C16.6132 9.09891 15.6511 8.74009 14.6338 8.74009C13.6668 8.74009 12.931 9.06434 12.42 9.39505V9.20009C12.42 9.07809 12.3715 8.9611 12.2853 8.87483C12.199 8.78857 12.082 8.7401 11.96 8.74009H9.20003ZM5.52003 9.66009H7.36003V15.2421V17.4801H5.52003V9.66009ZM9.66003 9.66009H11.5V10.3779C11.5001 10.4744 11.5304 10.5684 11.5868 10.6467C11.6431 10.7249 11.7227 10.7835 11.8142 10.8141C11.9056 10.8447 12.0044 10.8458 12.0965 10.8171C12.1886 10.7885 12.2694 10.7317 12.3275 10.6547C12.3275 10.6547 13.0499 9.66009 14.6338 9.66009C15.4403 9.66009 16.1319 9.92807 16.6373 10.4615C17.1426 10.9949 17.48 11.8167 17.48 13.0005V17.4801H15.64V13.3401C15.64 12.8034 15.5114 12.2486 15.1755 11.7975C14.8396 11.3464 14.2747 11.0323 13.5781 11.0203C12.878 11.0079 12.3039 11.3285 11.9672 11.7849C11.6305 12.2413 11.5 12.8017 11.5 13.3401V17.4801H9.66003V9.66009Z" fill="#545454"/>
</svg>
