<svg width="18" height="18" viewBox="0 0 18 18" fill="none" xmlns="http://www.w3.org/2000/svg">
<path d="M11.9325 9.27758H15.45C15.39 12.7801 14.7 13.3576 12.5475 14.6326C12.3 14.7826 12.2175 15.0976 12.3675 15.3526C12.5175 15.6001 12.8325 15.6826 13.0875 15.5326C15.6225 14.0326 16.5075 13.1176 16.5075 8.75258V4.71008C16.5075 3.42758 15.465 2.39258 14.19 2.39258H11.94C10.62 2.39258 9.6225 3.39008 9.6225 4.71008V6.96008C9.615 8.28008 10.6125 9.27758 11.9325 9.27758Z" fill="#CDC6C6"/>
<path d="M3.8175 9.27758H7.335C7.275 12.7801 6.585 13.3576 4.4325 14.6326C4.185 14.7826 4.1025 15.0976 4.2525 15.3526C4.4025 15.6001 4.7175 15.6826 4.9725 15.5326C7.5075 14.0326 8.3925 13.1176 8.3925 8.75258V4.71008C8.3925 3.42758 7.35 2.39258 6.075 2.39258H3.825C2.4975 2.39258 1.5 3.39008 1.5 4.71008V6.96008C1.5 8.28008 2.4975 9.27758 3.8175 9.27758Z" fill="#CDC6C6"/>
</svg>
