<svg width="33" height="37" viewBox="0 0 33 37" fill="none" xmlns="http://www.w3.org/2000/svg">
<g clip-path="url(#clip0_452_131)">
<path d="M18.762 18.0967L33.0034 9.66251L18.076 16.8517C17.7159 16.9755 17.3287 16.7446 17.2778 16.3697L16.9857 0L15.8377 16.3329C15.7664 16.7044 15.369 16.9152 15.0157 16.7747L0.482297 8.83582L14.2617 17.9796C14.5504 18.2239 14.5402 18.6724 14.238 18.9033L0 27.3375L14.9274 20.1483C15.2875 20.0245 15.6747 20.2554 15.7256 20.6303L16.0177 37L17.1657 20.6671C17.237 20.2956 17.6344 20.0848 17.9876 20.2253L32.5211 28.1608L18.7417 19.0171C18.453 18.7728 18.4632 18.3243 18.7654 18.0934L18.762 18.0967Z" fill="#FEE59E"/>
<path d="M17.6344 18.8631L26.2377 18.4682L17.631 18.1268C17.434 18.0967 17.3186 17.8959 17.3865 17.7118L21.3434 10.1746L16.7412 17.347C16.6155 17.4976 16.3811 17.501 16.2555 17.347L11.6091 10.2014L15.6135 17.7152C15.6849 17.8959 15.5694 18.0967 15.3724 18.1302L6.76917 18.5251L15.3758 18.8665C15.5728 18.8966 15.6883 19.0974 15.6203 19.2815L11.6635 26.8187L16.2657 19.6463C16.3913 19.4957 16.6257 19.4924 16.7514 19.6463L21.3977 26.792L17.3933 19.2782C17.322 19.0974 17.4374 18.8966 17.6344 18.8631Z" fill="#FEE59E"/>
</g>
<defs>
<clipPath id="clip0_452_131">
<rect width="33" height="37" fill="white"/>
</clipPath>
</defs>
</svg>
