<svg width="79" height="78" viewBox="0 0 79 78" fill="none" xmlns="http://www.w3.org/2000/svg">
<g clip-path="url(#clip0_436_86)">
<path d="M39.0319 35.6392L39.5034 0L39.9749 35.6392C40.032 37.212 41.3107 38.4745 42.9037 38.531L78.9998 38.9965L42.9037 39.462C41.3107 39.5184 40.032 40.7809 39.9749 42.3537L39.5034 77.993L39.0319 42.3537C38.9748 40.7809 37.6961 39.5184 36.1031 39.462L0.00696564 38.9965L36.1031 38.531C37.6961 38.4745 38.9748 37.212 39.0319 35.6392Z" fill="#FDD90D"/>
<path d="M41.6681 36.1752L49.133 29.496L42.3681 36.8664C41.2323 38.0725 41.2323 39.9345 42.3681 41.1406L49.133 48.5111L41.6681 41.8318C40.4465 40.7104 38.5606 40.7104 37.3391 41.8318L29.8741 48.5111L36.639 41.1406C37.7748 39.9345 37.7748 38.0725 36.639 36.8664L29.8741 29.496L37.3391 36.1752C38.5606 37.2967 40.4465 37.2967 41.6681 36.1752Z" fill="#FDD90D"/>
</g>
<defs>
<clipPath id="clip0_436_86">
<rect width="79" height="78" fill="white"/>
</clipPath>
</defs>
</svg>
